<?xml version="1.0" standalone="no"?>
<!DOCTYPE svg PUBLIC "-//W3C//DTD SVG 20010904//EN"
 "http://www.w3.org/TR/2001/REC-SVG-20010904/DTD/svg10.dtd">
<svg version="1.0" xmlns="http://www.w3.org/2000/svg"
 width="1920.000000pt" height="1920.000000pt" viewBox="0 0 1920.000000 1920.000000"
 preserveAspectRatio="xMidYMid meet">

<g transform="translate(0.000000,1920.000000) scale(0.100000,-0.100000)"
fill="#0da4bf" stroke="none">
<path d="M9100 19189 c-63 -4 -194 -12 -290 -18 -96 -6 -240 -20 -320 -31 -80
-11 -188 -25 -240 -30 -52 -6 -140 -19 -195 -30 -55 -11 -122 -22 -148 -25
-27 -3 -101 -17 -165 -31 -64 -13 -130 -26 -145 -28 -47 -6 -419 -97 -597
-147 -200 -56 -521 -160 -715 -232 -107 -39 -247 -93 -320 -124 -277 -116
-430 -186 -663 -302 -183 -91 -248 -126 -440 -235 -40 -22 -86 -48 -103 -58
-26 -14 -171 -102 -219 -133 -9 -5 -31 -19 -49 -30 -103 -63 -501 -331 -511
-344 -3 -4 -36 -29 -75 -56 -68 -48 -85 -61 -156 -117 -19 -15 -82 -65 -140
-110 -489 -381 -1130 -1021 -1517 -1517 -45 -58 -95 -121 -110 -140 -15 -19
-36 -46 -48 -60 -22 -28 -103 -140 -197 -274 -58 -82 -237 -351 -269 -404 -10
-15 -22 -35 -28 -43 -38 -58 -130 -211 -130 -218 0 -5 -9 -20 -20 -34 -10 -14
-32 -49 -48 -79 -15 -30 -52 -97 -81 -149 -67 -118 -236 -455 -297 -592 -203
-455 -304 -721 -454 -1198 -98 -312 -245 -929 -266 -1110 -2 -25 -13 -90 -24
-145 -11 -55 -24 -143 -30 -195 -5 -52 -19 -160 -30 -240 -11 -80 -25 -221
-31 -315 -5 -93 -14 -235 -19 -315 -5 -80 -10 -296 -10 -480 0 -184 5 -400 10
-480 5 -80 14 -221 19 -315 6 -93 20 -235 31 -315 11 -80 25 -188 30 -240 6
-52 19 -140 30 -195 11 -55 22 -120 24 -145 12 -101 108 -544 160 -735 8 -27
29 -104 46 -170 18 -66 44 -153 57 -192 13 -40 26 -81 28 -92 3 -16 67 -209
106 -321 66 -189 172 -457 264 -665 113 -256 268 -570 375 -759 38 -68 70
-127 70 -130 0 -3 13 -25 30 -48 16 -22 30 -45 30 -50 0 -7 92 -161 130 -218
6 -8 18 -28 28 -43 55 -91 330 -499 341 -507 4 -3 29 -36 56 -75 27 -38 71
-97 97 -130 27 -33 85 -108 131 -166 379 -488 1031 -1140 1516 -1516 58 -46
117 -92 129 -103 13 -11 53 -42 89 -68 36 -26 95 -69 131 -97 109 -80 423
-293 533 -360 18 -11 40 -24 49 -30 52 -34 193 -119 220 -133 17 -10 108 -61
203 -114 233 -130 518 -272 772 -383 425 -185 705 -286 1245 -449 47 -14 106
-30 130 -35 25 -5 88 -21 140 -34 150 -40 302 -76 345 -83 22 -3 91 -17 153
-30 63 -13 137 -27 165 -30 29 -3 93 -14 142 -24 50 -10 119 -21 155 -25 36
-4 145 -18 242 -31 98 -13 255 -29 350 -34 95 -6 238 -15 318 -20 187 -12 773
-12 960 0 80 5 222 14 315 19 94 6 235 20 315 31 80 11 188 25 240 30 52 6
140 19 195 30 55 11 120 22 145 25 100 11 452 87 660 142 52 13 114 29 138 34
114 23 593 175 827 262 186 68 346 133 550 222 254 111 539 253 772 383 95 53
186 104 203 114 27 14 168 99 220 133 9 6 31 19 49 30 110 67 424 280 533 360
36 28 95 71 131 97 36 26 76 57 89 68 12 11 71 57 129 103 488 378 1141 1031
1516 1516 46 58 104 133 131 166 26 33 70 92 97 130 27 39 52 72 56 75 12 9
282 409 341 507 10 15 22 35 28 43 37 56 130 211 130 218 0 5 13 26 30 48 16
21 30 43 30 48 0 4 32 64 70 132 80 140 247 472 316 626 124 278 197 456 281
683 88 237 238 712 262 827 5 24 21 86 34 138 55 208 132 564 143 660 2 25 13
90 24 145 11 55 24 143 30 195 5 52 19 160 30 240 11 80 25 222 31 315 5 94
14 235 19 315 13 190 12 775 0 965 -6 83 -14 222 -20 310 -11 180 -48 487 -86
710 -15 83 -30 177 -34 210 -5 33 -18 103 -30 155 -11 52 -22 109 -25 126 -2
16 -13 66 -24 110 -11 43 -27 112 -35 153 -9 41 -24 104 -35 140 -11 36 -34
120 -51 186 -18 66 -43 154 -57 195 -13 41 -26 84 -29 95 -6 30 -53 171 -85
255 -16 41 -29 82 -29 90 0 8 -6 27 -14 41 -7 15 -23 53 -34 85 -26 76 -138
357 -162 409 -10 22 -49 107 -86 190 -97 219 -286 595 -361 720 -7 11 -23 40
-36 65 -25 49 -189 322 -228 381 -13 20 -41 63 -61 95 -196 308 -540 772 -724
979 -35 39 -100 113 -145 165 -242 281 -568 608 -849 849 -52 45 -126 110
-165 145 -80 71 -292 239 -428 339 -50 37 -103 77 -117 88 -43 36 -301 212
-434 297 -32 20 -74 47 -92 59 -62 41 -266 163 -272 163 -3 0 -13 6 -21 14 -9
7 -41 27 -71 43 -93 50 -174 95 -205 114 -61 36 -455 229 -600 293 -82 37
-168 76 -190 86 -51 24 -335 137 -395 157 -25 8 -58 21 -75 28 -32 15 -200 73
-226 79 -8 2 -56 18 -105 36 -49 17 -90 30 -92 30 -1 -1 -37 9 -80 23 -42 13
-131 39 -197 57 -66 17 -150 40 -186 51 -36 11 -99 26 -140 35 -41 8 -117 25
-169 38 -52 13 -126 29 -165 36 -38 6 -95 18 -125 25 -30 8 -73 16 -95 18 -22
2 -110 15 -195 30 -235 40 -537 76 -720 87 -91 6 -230 15 -310 20 -166 11
-808 11 -980 -1z m970 -650 c264 -11 418 -23 565 -45 55 -8 144 -19 199 -24
54 -6 155 -21 225 -34 69 -13 133 -24 141 -23 19 0 239 -46 380 -80 58 -13
141 -33 185 -43 124 -28 247 -62 510 -142 114 -35 435 -146 510 -177 28 -11
93 -37 145 -57 52 -20 113 -44 135 -54 22 -10 128 -58 235 -106 234 -104 342
-158 549 -271 86 -48 176 -97 201 -111 25 -13 52 -30 60 -37 8 -7 31 -20 50
-30 53 -26 350 -213 419 -262 14 -10 55 -38 91 -63 98 -66 280 -196 320 -230
19 -16 81 -64 137 -107 101 -78 244 -196 397 -327 121 -103 643 -624 759 -757
141 -160 268 -312 360 -432 43 -56 91 -118 107 -137 34 -40 164 -222 230 -320
25 -36 53 -77 63 -91 48 -67 235 -365 262 -419 10 -19 29 -49 41 -66 13 -17
24 -34 24 -38 0 -3 29 -57 64 -119 105 -185 228 -430 321 -637 47 -107 95
-213 105 -235 17 -37 30 -70 95 -240 143 -373 273 -785 335 -1060 10 -44 30
-127 43 -185 34 -139 76 -344 83 -400 3 -25 14 -90 25 -145 10 -55 23 -145 29
-200 5 -55 16 -145 24 -200 69 -464 76 -1361 15 -1920 -33 -311 -39 -356 -64
-505 -14 -80 -27 -163 -30 -185 -11 -83 -86 -431 -132 -610 -8 -33 -23 -92
-33 -130 -19 -77 -51 -185 -107 -365 -33 -104 -53 -165 -129 -382 -12 -37 -32
-87 -43 -112 -12 -25 -21 -48 -21 -51 0 -11 -87 -227 -104 -260 -9 -16 -16
-34 -16 -39 0 -5 -11 -32 -25 -60 -13 -28 -63 -134 -109 -235 -121 -260 -404
-780 -483 -887 -13 -17 -23 -34 -23 -37 0 -11 -264 -406 -311 -466 -11 -14
-44 -58 -72 -97 -100 -137 -247 -324 -333 -424 -12 -14 -79 -92 -149 -175
-164 -192 -627 -655 -816 -816 -276 -235 -311 -264 -412 -342 -96 -74 -204
-155 -272 -204 -130 -94 -471 -323 -481 -323 -3 0 -35 -19 -72 -43 -77 -50
-167 -104 -232 -140 -279 -154 -463 -249 -600 -313 -91 -42 -197 -92 -237
-110 -40 -19 -76 -34 -80 -34 -4 0 -21 -7 -38 -16 -33 -17 -249 -104 -260
-104 -3 0 -26 -9 -51 -21 -25 -11 -75 -31 -112 -43 -217 -76 -278 -96 -382
-129 -180 -56 -288 -88 -365 -107 -38 -10 -97 -25 -130 -33 -232 -59 -485
-111 -760 -156 -184 -31 -228 -36 -540 -70 -559 -61 -1456 -54 -1920 15 -55 8
-145 19 -200 24 -55 6 -145 19 -200 30 -55 11 -120 22 -145 24 -54 6 -254 47
-400 83 -58 13 -141 33 -185 43 -275 62 -687 192 -1060 335 -170 65 -203 78
-240 95 -22 10 -103 47 -180 81 -222 98 -407 188 -590 289 -93 51 -190 104
-215 118 -25 13 -52 30 -60 37 -8 7 -31 20 -50 30 -53 26 -350 213 -419 262
-14 10 -55 38 -91 63 -98 66 -280 196 -320 230 -19 16 -81 64 -137 107 -101
78 -244 196 -397 327 -121 103 -643 624 -759 757 -262 298 -522 629 -697 889
-25 36 -53 77 -63 91 -48 67 -235 365 -262 419 -10 19 -29 49 -41 66 -13 17
-24 34 -24 38 0 3 -29 57 -64 119 -105 185 -228 430 -321 637 -47 107 -95 213
-105 235 -116 248 -360 987 -430 1300 -10 44 -27 115 -38 158 -12 42 -24 96
-27 119 -4 24 -18 92 -32 153 -13 60 -27 130 -29 155 -3 25 -14 90 -24 145
-11 55 -24 145 -30 200 -5 55 -16 145 -24 200 -76 511 -76 1559 0 2070 8 55
19 145 24 200 6 55 19 145 29 200 11 55 22 120 25 145 7 56 49 261 83 400 13
58 33 141 43 185 28 123 97 370 147 525 67 212 237 676 283 775 10 22 56 123
101 225 99 222 214 450 335 663 49 86 100 176 113 200 50 87 226 368 268 426
10 14 38 55 63 91 66 98 196 280 230 320 16 19 64 81 107 137 92 120 219 272
360 432 116 133 638 654 759 757 153 131 296 249 397 327 56 43 118 91 137
107 40 34 222 164 320 230 36 25 77 53 91 63 58 42 339 218 426 268 24 13 112
63 195 111 230 130 421 227 648 328 113 50 223 100 245 110 108 50 607 232
790 288 267 81 387 114 510 142 44 10 127 29 185 43 147 35 362 80 380 80 8
-1 72 10 141 23 70 13 171 28 225 34 55 5 144 16 199 24 154 23 297 34 575 46
434 19 481 19 930 -1z"/>
<path d="M9520 17589 c-185 -27 -352 -127 -458 -273 -20 -28 -55 -73 -77 -101
-23 -27 -65 -84 -95 -125 -29 -41 -67 -91 -84 -111 -17 -19 -67 -84 -111 -143
-155 -210 -428 -569 -437 -576 -3 -3 -42 -53 -85 -111 -131 -176 -264 -352
-302 -399 -21 -25 -65 -83 -100 -130 -76 -104 -173 -232 -246 -325 -30 -38
-83 -109 -119 -156 -35 -48 -71 -95 -80 -105 -72 -88 -193 -258 -218 -308
-130 -258 -73 -596 134 -792 62 -59 124 -98 214 -136 l79 -33 2065 0 2065 0
79 33 c209 87 341 238 396 453 41 156 23 335 -48 475 -25 50 -146 220 -218
308 -9 10 -45 57 -80 105 -36 47 -89 118 -119 156 -73 93 -170 221 -246 325
-35 47 -79 105 -100 130 -38 47 -171 223 -302 399 -43 58 -82 108 -86 111 -4
3 -47 58 -96 124 -168 221 -260 344 -334 442 -40 55 -84 113 -98 129 -30 38
-217 284 -262 344 -122 166 -281 262 -479 291 -75 11 -75 11 -152 -1z m136
-717 c27 -37 70 -94 96 -127 27 -33 75 -96 108 -140 33 -44 107 -140 163 -214
56 -74 137 -182 180 -240 43 -58 82 -108 86 -111 4 -3 43 -54 86 -114 44 -60
91 -120 104 -135 13 -14 50 -64 84 -111 33 -47 71 -96 84 -111 12 -14 60 -75
105 -136 76 -102 128 -171 381 -503 48 -63 122 -162 165 -219 42 -57 94 -124
114 -148 55 -64 98 -129 98 -147 0 -15 -181 -16 -1910 -16 -1812 0 -1910 1
-1910 18 0 9 24 48 53 85 28 37 90 119 137 181 47 62 132 175 190 251 58 76
143 189 190 250 47 62 132 175 190 250 58 76 128 169 155 206 28 37 104 137
170 223 66 86 158 208 205 270 47 62 131 174 187 247 56 74 143 188 193 254
51 66 124 163 163 216 40 54 75 95 79 93 3 -2 28 -35 54 -72z"/>
<path d="M4725 12163 c-81 -10 -187 -40 -246 -69 -55 -27 -234 -154 -314 -222
-11 -9 -58 -45 -105 -80 -47 -34 -116 -87 -155 -117 -90 -71 -217 -167 -325
-246 -47 -35 -105 -79 -130 -100 -47 -38 -223 -171 -399 -302 -58 -43 -108
-82 -111 -86 -3 -4 -58 -47 -124 -96 -221 -168 -344 -260 -442 -334 -55 -40
-112 -84 -129 -98 -30 -23 -222 -170 -365 -278 -192 -144 -280 -312 -280 -535
0 -223 88 -391 280 -535 143 -108 335 -255 365 -278 17 -14 74 -58 129 -98
189 -142 324 -245 440 -334 112 -86 186 -143 467 -354 68 -51 144 -110 169
-130 25 -21 83 -65 130 -100 108 -79 235 -175 325 -246 39 -30 108 -83 155
-117 47 -35 94 -71 105 -80 76 -65 258 -194 309 -220 168 -85 407 -90 583 -13
158 70 274 192 345 361 l33 79 0 2065 0 2065 -33 79 c-68 163 -171 274 -328
354 -79 40 -268 76 -349 65z m75 -2563 c0 -1812 -1 -1910 -17 -1910 -10 0 -49
24 -86 53 -37 28 -119 90 -181 137 -62 47 -175 132 -251 190 -76 58 -189 143
-250 190 -62 47 -175 132 -250 190 -76 58 -150 114 -164 124 -140 106 -186
140 -200 152 -16 13 -106 82 -335 254 -62 47 -175 132 -251 190 -181 138 -347
264 -469 355 l-98 74 68 48 c37 26 83 62 102 78 20 17 84 66 143 110 59 44
168 126 241 181 73 56 239 182 368 279 129 98 239 183 245 189 7 6 49 38 95
71 46 33 99 74 118 90 19 17 81 64 137 105 56 41 126 94 156 117 30 24 90 70
134 103 44 33 140 106 214 163 135 102 237 180 321 242 25 19 74 57 110 84 36
28 73 51 83 51 16 0 17 -98 17 -1910z"/>
<path d="M14350 12160 c-78 -11 -177 -38 -224 -62 -157 -80 -260 -191 -328
-354 l-33 -79 0 -2065 0 -2065 33 -79 c88 -211 243 -345 459 -397 160 -39 331
-21 469 49 34 17 119 75 189 129 70 54 169 128 219 165 50 37 109 82 130 100
22 18 85 67 141 108 56 41 126 94 156 117 30 24 90 70 134 103 44 33 140 106
214 163 74 56 175 132 225 170 50 37 100 75 111 85 20 16 145 112 370 282 62
47 175 132 251 190 76 58 192 146 258 196 67 51 157 119 201 153 97 74 163
151 211 248 50 103 64 162 64 283 0 121 -14 180 -64 283 -48 96 -114 175 -206
243 -41 31 -95 73 -120 93 -25 21 -79 61 -120 91 -41 29 -91 67 -111 84 -19
17 -84 67 -143 111 -179 132 -559 420 -591 448 -11 9 -61 47 -111 84 -192 144
-341 257 -384 292 -25 21 -83 65 -130 100 -108 79 -235 175 -325 246 -38 30
-108 83 -155 117 -47 35 -94 71 -105 80 -76 65 -258 194 -309 220 -105 53
-269 83 -376 68z m142 -693 c31 -23 172 -130 313 -237 141 -107 307 -233 369
-280 62 -47 166 -126 232 -176 65 -49 178 -135 249 -189 72 -54 184 -140 249
-189 177 -135 332 -252 437 -331 118 -89 118 -89 280 -212 251 -192 286 -218
309 -234 24 -16 24 -16 -75 -90 -109 -82 -253 -192 -460 -349 -260 -198 -362
-275 -466 -353 -57 -42 -121 -92 -143 -110 -21 -17 -78 -61 -126 -97 -49 -36
-150 -112 -226 -170 -76 -58 -188 -143 -250 -190 -62 -47 -174 -132 -250 -190
-140 -106 -242 -184 -324 -245 -25 -19 -74 -57 -110 -84 -36 -28 -73 -51 -82
-51 -17 0 -18 98 -18 1910 0 1812 1 1910 18 1910 9 0 43 -20 74 -43z"/>
<path d="M9275 12143 c-194 -23 -458 -93 -660 -174 -75 -30 -300 -143 -325
-163 -8 -7 -44 -29 -80 -51 -36 -21 -78 -49 -95 -62 -16 -13 -76 -60 -132
-103 -130 -101 -272 -243 -373 -373 -43 -56 -89 -115 -102 -132 -74 -95 -221
-360 -277 -500 -129 -321 -191 -640 -191 -985 0 -345 62 -664 191 -985 58
-144 203 -407 277 -500 13 -16 59 -76 102 -132 101 -130 243 -272 373 -373 56
-43 116 -89 132 -102 93 -74 356 -219 500 -277 321 -129 640 -191 985 -191
343 0 668 63 980 189 79 32 304 145 330 165 8 7 44 29 80 51 36 21 79 49 95
62 17 13 76 60 132 103 130 101 272 243 373 373 43 56 90 116 103 132 13 17
41 59 62 95 22 36 44 72 51 80 20 25 133 250 163 325 84 209 152 468 175 675
21 175 21 438 0 615 -65 568 -331 1114 -741 1518 -144 142 -253 226 -493 383
-101 66 -330 170 -500 227 -129 44 -359 95 -505 111 -171 20 -462 19 -630 -1z
m576 -648 c69 -8 159 -24 200 -35 41 -12 90 -25 109 -30 67 -15 229 -80 310
-125 14 -8 48 -26 75 -41 271 -145 574 -448 719 -719 15 -27 33 -61 41 -75 45
-81 110 -243 125 -310 5 -19 18 -68 30 -109 65 -228 65 -674 0 -902 -12 -41
-25 -90 -30 -109 -14 -66 -68 -195 -131 -315 -190 -365 -462 -637 -826 -826
-118 -61 -247 -115 -313 -129 -19 -5 -68 -18 -109 -30 -228 -65 -674 -65 -902
0 -41 12 -90 25 -109 30 -67 15 -229 80 -310 125 -14 8 -47 26 -75 41 -178 95
-413 295 -551 469 -66 82 -224 331 -224 352 0 4 -9 26 -21 47 -25 48 -79 189
-89 236 -5 19 -18 68 -30 109 -66 230 -66 672 0 902 12 41 25 90 30 109 11 47
31 103 41 115 5 5 9 16 9 24 0 14 47 120 75 171 8 14 26 48 41 75 145 271 448
574 719 719 28 15 61 33 75 41 160 89 414 167 619 190 216 25 274 25 502 0z"/>
<path d="M7545 5433 c-50 -13 -172 -67 -214 -95 -185 -124 -294 -334 -293
-563 1 -106 26 -214 70 -301 26 -51 155 -233 220 -309 9 -11 45 -58 80 -105
34 -47 87 -116 117 -155 71 -90 167 -217 246 -325 35 -47 79 -105 100 -130 38
-47 171 -223 302 -399 43 -58 82 -108 86 -111 4 -3 47 -58 96 -124 168 -221
260 -344 334 -442 40 -55 84 -112 98 -129 13 -16 68 -88 122 -160 55 -71 126
-166 160 -210 74 -97 151 -163 248 -211 103 -50 162 -64 283 -64 121 0 180 14
283 64 97 48 174 114 248 211 34 44 105 139 160 210 54 72 109 144 122 160 14
17 58 74 98 129 74 98 166 221 334 442 49 66 92 121 96 124 4 3 43 53 86 111
131 176 264 352 302 399 21 25 65 83 100 130 79 108 175 235 246 325 30 39 83
108 117 155 35 47 71 94 80 105 65 76 194 258 220 309 130 258 73 596 -134
792 -62 59 -124 98 -214 136 l-79 33 -2050 1 c-1127 1 -2059 0 -2070 -3z
m3965 -652 c0 -10 -21 -47 -47 -80 -27 -34 -73 -95 -103 -135 -30 -41 -116
-153 -190 -251 -74 -97 -173 -228 -220 -290 -179 -236 -377 -496 -555 -731
-162 -212 -259 -340 -330 -435 -90 -119 -90 -120 -212 -280 -192 -251 -218
-286 -234 -309 -15 -23 -16 -23 -94 81 -43 57 -120 158 -169 223 -311 409
-468 615 -538 709 -37 49 -81 106 -98 127 -17 20 -61 78 -98 128 -37 50 -114
153 -172 229 -58 75 -143 187 -190 249 -47 61 -132 174 -190 250 -109 143
-187 247 -245 324 -19 25 -57 74 -84 110 -28 36 -51 73 -51 83 0 16 98 17
1910 17 1870 0 1910 0 1910 -19z"/>
</g>
</svg>
