<?xml version="1.0" encoding="UTF-8"?>
<svg version="1.1" xmlns="http://www.w3.org/2000/svg" width="512" height="512">
<path d="M0 0 C1.51671886 1.26424817 3.0593383 2.49722026 4.60253906 3.72900391 C19.28864031 15.68237492 33.1902857 29.28168978 44.33349609 44.62451172 C45.62066708 46.38127784 46.9453607 48.10442915 48.27832031 49.82666016 C72.45591287 81.38831197 88.32687017 120.12752123 94.56347656 159.30322266 C94.72428711 160.30675781 94.88509766 161.31029297 95.05078125 162.34423828 C99.15307909 189.19102865 98.85784384 216.50430539 94.56347656 243.30322266 C94.40782227 244.28097656 94.25216797 245.25873047 94.09179688 246.26611328 C83.83070262 307.66882901 48.55341729 366.91574741 -1.70214844 404.01318359 C-3.45613547 405.31781021 -5.18141301 406.65442649 -6.90527344 407.99853516 C-58.49573872 447.71022316 -126.64664264 463.36497081 -190.72607422 455.71557617 C-232.1290536 450.25493496 -271.20213463 435.19680584 -305.43652344 411.30322266 C-306.15565918 410.80177734 -306.87479492 410.30033203 -307.61572266 409.78369141 C-318.02591578 402.43816999 -327.32460976 394.18751632 -336.43652344 385.30322266 C-337.07509277 384.69043457 -337.71366211 384.07764648 -338.37158203 383.44628906 C-346.67181637 375.47831329 -354.27219981 367.3099454 -361.12597656 358.0625 C-362.45449434 356.27909852 -363.81012381 354.5191275 -365.17089844 352.76025391 C-404.6647793 301.10368044 -421.02435224 232.73318877 -412.84033203 168.60058594 C-412.40469949 165.49544331 -411.93264328 162.39924907 -411.43652344 159.30322266 C-411.28086914 158.32546875 -411.12521484 157.34771484 -410.96484375 156.34033203 C-402.66879853 106.69653249 -378.42754956 60.28925426 -343.43652344 24.30322266 C-342.82550781 23.66642578 -342.21449219 23.02962891 -341.58496094 22.37353516 C-333.27930111 13.73697254 -324.82481479 5.71874882 -315.1796875 -1.40234375 C-313.40167473 -2.7226552 -311.64898673 -4.07204745 -309.89746094 -5.42724609 C-231.90738178 -65.10203185 -121.53510399 -69.85830349 0 0 Z " fill="#0fb8d7" transform="translate(414.4365234375,54.69677734375)"/>
<path d="M0 0 C0.82668686 -0.00511093 1.65337372 -0.01022186 2.50511169 -0.01548767 C5.23159067 -0.02936039 7.95781614 -0.02842833 10.68432617 -0.02612305 C12.58615716 -0.03001189 14.48798728 -0.03434696 16.38981628 -0.03910828 C20.37514053 -0.04656598 24.3603762 -0.04628293 28.34570312 -0.04101562 C33.43987094 -0.03522853 38.53367427 -0.05213583 43.62778187 -0.0753603 C47.5561483 -0.09013175 51.48442771 -0.09096458 55.412817 -0.08785057 C57.2901958 -0.08836229 59.16757966 -0.09357197 61.04493141 -0.10366249 C63.67732645 -0.11607272 66.30902144 -0.10920746 68.94140625 -0.09765625 C69.70895233 -0.10529999 70.47649841 -0.11294373 71.26730347 -0.12081909 C79.94500502 -0.03713879 87.51112412 3.11124735 93.66479492 9.2746582 C99.93084662 18.29062024 100.51290964 27.09136933 100.39916992 37.6887207 C100.40535726 39.23621 100.41446444 40.78369007 100.42633057 42.33114624 C100.45084902 46.36483953 100.44192516 50.39769592 100.42376709 54.43139648 C100.40017811 60.92077432 100.42749709 67.41010802 100.45648956 73.89942551 C100.46160688 76.16086144 100.45176872 78.42185652 100.43963623 80.68325806 C100.43982466 82.05959074 100.44031639 83.43592342 100.44116211 84.81225586 C100.43638855 86.01516266 100.43161499 87.21806946 100.42669678 88.45742798 C100.37129673 91.41119071 100.37129673 91.41119071 102.66479492 93.2746582 C105.61619185 93.56578955 105.61619185 93.56578955 109.12719727 93.49829102 C109.79096375 93.49869888 110.45473022 93.49910675 111.13861084 93.49952698 C112.58347456 93.49972479 114.02834356 93.49567429 115.47318649 93.48792267 C117.77036244 93.47769581 120.06699563 93.48308405 122.36416626 93.49334717 C128.89692427 93.52129875 135.42938664 93.53404654 141.9621582 93.50463867 C145.95892574 93.48777442 149.95473173 93.5004427 153.95140457 93.53108978 C155.46541579 93.53714327 156.97951404 93.5324613 158.49345016 93.51621246 C168.28880824 93.41560134 176.3916219 94.42707521 184.66479492 100.2746582 C191.328288 107.09922955 193.96655697 113.02787856 193.95532227 122.578125 C193.96203949 123.40159927 193.96875671 124.22507355 193.97567749 125.07350159 C193.99464176 127.79035517 193.99858137 130.50696133 194.00073242 133.22387695 C194.00716314 135.12091675 194.01389171 137.01795555 194.02090454 138.91499329 C194.0328746 142.89191993 194.03658581 146.86875974 194.03540039 150.84570312 C194.03519761 155.92182802 194.06245873 160.99739049 194.09694481 166.07338238 C194.11927571 169.99325576 194.12323598 173.91299534 194.12218094 177.8329258 C194.12452916 179.7030817 194.13330844 181.57324174 194.14884567 183.44333458 C194.32209161 206.45663297 194.32209161 206.45663297 186.36239624 214.90740967 C177.15768831 222.32088379 167.58380958 223.13066935 156.25073242 223.0090332 C154.70324313 223.01522054 153.15576305 223.02432772 151.60830688 223.03619385 C147.5746136 223.0607123 143.54175721 223.05178844 139.50805664 223.03363037 C133.0186788 223.01004139 126.52934511 223.03736038 120.04002762 223.06635284 C117.77859168 223.07147016 115.51759661 223.061632 113.25619507 223.04949951 C111.87986239 223.04968794 110.5035297 223.05017967 109.12719727 223.05102539 C107.92429047 223.04625183 106.72138367 223.04147827 105.48202515 223.03656006 C102.52826241 222.98116001 102.52826241 222.98116001 100.66479492 225.2746582 C100.37366358 228.22605513 100.37366358 228.22605513 100.44116211 231.73706055 C100.44055031 232.73271027 100.44055031 232.73271027 100.43992615 233.74847412 C100.43972833 235.19333784 100.44377883 236.63820684 100.45153046 238.08304977 C100.46175731 240.38022572 100.45636908 242.67685891 100.44610596 244.97402954 C100.41815438 251.50678755 100.40540658 258.03924992 100.43481445 264.57202148 C100.4516787 268.56878902 100.43901043 272.56459501 100.40836334 276.56126785 C100.40230986 278.07527907 100.40699182 279.58937732 100.42324066 281.10331345 C100.52399123 290.91224742 99.48923743 298.97574219 93.66479492 307.2746582 C87.17753134 313.77100662 80.61306449 316.45933326 71.42504883 316.56793213 C70.65862061 316.56702576 69.89219238 316.56611938 69.10253906 316.56518555 C68.27556015 316.57190277 67.44858124 316.57862 66.59654236 316.58554077 C63.88094975 316.60443514 61.1656053 316.60844028 58.44995117 316.6105957 C56.5509786 316.6170284 54.65200702 316.62375711 52.7530365 316.63076782 C48.77967023 316.64271831 44.80639077 316.64645082 40.83300781 316.64526367 C35.75450272 316.64506034 30.67655631 316.67238723 25.59818363 316.70680809 C21.67839525 316.72909721 17.75874105 316.73310063 13.8388958 316.73204422 C11.96708688 316.73439618 10.09527403 316.74319682 8.22352791 316.75870895 C5.60077361 316.77841476 2.97922102 316.77251385 0.35644531 316.76049805 C-0.40795868 316.77173706 -1.17236267 316.78297607 -1.95993042 316.79455566 C-9.11206299 316.71174103 -15.56704989 313.80326934 -20.89715576 308.97225952 C-28.52128316 299.97206143 -29.1902727 290.10576222 -29.06958008 278.8605957 C-29.07576742 277.31310641 -29.0848746 275.76562633 -29.09674072 274.21817017 C-29.12125918 270.18447688 -29.11233532 266.15162049 -29.09417725 262.11791992 C-29.07058826 255.62854208 -29.09790725 249.13920839 -29.12689972 242.6498909 C-29.13201704 240.38845496 -29.12217887 238.12745989 -29.11004639 235.86605835 C-29.11023482 234.48972567 -29.11072654 233.11339298 -29.11157227 231.73706055 C-29.10679871 230.53415375 -29.10202515 229.33124695 -29.09710693 228.09188843 C-29.04170688 225.13812569 -29.04170688 225.13812569 -31.33520508 223.2746582 C-34.28660201 222.98352686 -34.28660201 222.98352686 -37.79760742 223.05102539 C-38.4613739 223.05061752 -39.12514038 223.05020966 -39.809021 223.04978943 C-41.25388471 223.04959161 -42.69875371 223.05364211 -44.14359665 223.06139374 C-46.4407726 223.07162059 -48.73740578 223.06623236 -51.03457642 223.05596924 C-57.56733443 223.02801766 -64.0997968 223.01526986 -70.63256836 223.04467773 C-74.62933589 223.06154198 -78.62514189 223.04887371 -82.62181473 223.01822662 C-84.13582595 223.01217314 -85.6499242 223.0168551 -87.16386032 223.03310394 C-97.02215956 223.13436156 -105.03898876 222.04048997 -113.33520508 216.2746582 C-119.47753828 210.14203175 -122.62773227 202.57960029 -122.76400757 193.93270874 C-122.76107697 193.17301788 -122.75814636 192.41332703 -122.75512695 191.63061523 C-122.7635965 190.80670288 -122.77206604 189.98279053 -122.78079224 189.13391113 C-122.80402836 186.43327026 -122.8051876 183.73320362 -122.80395508 181.0324707 C-122.81106482 179.13971737 -122.818765 177.24696618 -122.82702637 175.35421753 C-122.84044052 171.39518232 -122.84205379 167.43634643 -122.83618164 163.47729492 C-122.83028898 158.42464648 -122.86087358 153.37296005 -122.90129852 148.32049751 C-122.92725261 144.4134717 -122.93004595 140.50667517 -122.92640686 136.59957504 C-122.92809094 134.73778746 -122.93766435 132.87598846 -122.95555115 131.01428604 C-123.12781323 110.86949967 -123.12781323 110.86949967 -115.7779541 102.5017395 C-106.86469995 94.06590076 -96.90608248 93.69473137 -85.21411133 93.7355957 C-83.66233441 93.72567618 -82.11056926 93.71373018 -80.55882263 93.69985962 C-76.5006503 93.66767567 -72.44274783 93.65711937 -68.38446045 93.65301514 C-61.86525741 93.6442147 -55.34627345 93.60885412 -48.82725334 93.56084061 C-46.55260381 93.54823969 -44.27823271 93.54901348 -42.0035553 93.55111694 C-40.61743959 93.54454067 -39.23132583 93.53753522 -37.84521484 93.5300293 C-36.02728172 93.52814102 -36.02728172 93.52814102 -34.17262268 93.5262146 C-31.2013468 93.56873274 -31.2013468 93.56873274 -29.33520508 91.2746582 C-29.04407373 88.32326127 -29.04407373 88.32326127 -29.11157227 84.81225586 C-29.1111644 84.14848938 -29.11075653 83.4847229 -29.1103363 82.80084229 C-29.11013849 81.35597857 -29.11418899 79.91110957 -29.12194061 78.46626663 C-29.13216747 76.16909068 -29.12677923 73.8724575 -29.11651611 71.57528687 C-29.08856453 65.04252885 -29.07581674 58.51006648 -29.10522461 51.97729492 C-29.12208886 47.98052739 -29.10942058 43.98472139 -29.0787735 39.98804855 C-29.07272002 38.47403734 -29.07740198 36.95993908 -29.09365082 35.44600296 C-29.19426194 25.65064489 -28.18278807 17.54783122 -22.33520508 9.2746582 C-15.4964796 2.59734507 -9.56996999 -0.03064663 0 0 Z " fill="#FEFEFE" transform="translate(220.335205078125,97.725341796875)"/>
<path d="M0 0 C0.64195312 0.4125 1.28390625 0.825 1.9453125 1.25 C2.97011719 1.86875 2.97011719 1.86875 4.015625 2.5 C11.34233953 7.40304851 16.71705319 14.70483577 18.9453125 23.25 C19.7336566 32.09595417 19.91095882 40.55479033 14.9453125 48.25 C14.50960937 48.94480469 14.07390625 49.63960938 13.625 50.35546875 C8.73149342 57.48180484 1.64128837 63.62370467 -7.0546875 65.25 C-15.96870153 66.00290421 -24.27582236 66.24846756 -32.0546875 61.25 C-32.73789063 60.8375 -33.42109375 60.425 -34.125 60 C-41.45307204 55.09604305 -46.82358497 47.79554366 -49.0546875 39.25 C-50.11920687 27.41650565 -49.11718502 17.8186486 -41.3046875 8.4375 C-30.99671002 -2.40695214 -13.85443631 -7.58569897 0 0 Z " fill="#0fb8d7" transform="translate(271.0546875,224.75)"/>
<path d="M0 0 C2.76742392 1.29858982 5.40924943 2.79643957 8.0625 4.3125 C8.83529297 4.74965332 9.60808594 5.18680664 10.40429688 5.63720703 C12.94225076 7.08116281 15.47159054 8.53940254 18 10 C18.91120605 10.52223145 19.82241211 11.04446289 20.76123047 11.58251953 C23.51552414 13.16663502 26.25921377 14.76764593 29 16.375 C30.29949585 17.12390503 30.29949585 17.12390503 31.62524414 17.88793945 C32.42953857 18.36577881 33.23383301 18.84361816 34.0625 19.3359375 C35.13177734 19.96314697 35.13177734 19.96314697 36.22265625 20.60302734 C38.25538704 22.20073141 39.0257437 23.63061372 40 26 C36.55428507 28.87740237 33.07447135 31.24020842 29.17578125 33.4609375 C28.06396484 34.09773438 26.95214844 34.73453125 25.80664062 35.390625 C24.64204301 36.05228741 23.4773289 36.71374484 22.3125 37.375 C20.03728414 38.67364509 17.76253786 39.97311326 15.48828125 41.2734375 C14.39080566 41.89573242 13.29333008 42.51802734 12.16259766 43.15917969 C8.42823429 45.33280172 4.80341012 47.65767004 1.20776367 50.05322266 C-1.60160156 51.25799081 -3.12498566 50.90226677 -6 50 C-7 49 -7 49 -7.12025452 47.01951599 C-7.11803391 46.15125687 -7.11581329 45.28299774 -7.11352539 44.38842773 C-7.11344986 43.40748642 -7.11337433 42.4265451 -7.11329651 41.4158783 C-7.10813522 40.3492244 -7.10297394 39.2825705 -7.09765625 38.18359375 C-7.0962413 37.0974025 -7.09482635 36.01121124 -7.09336853 34.8921051 C-7.08775048 31.40720925 -7.07519492 27.92237658 -7.0625 24.4375 C-7.05748733 22.08138113 -7.05292402 19.72526126 -7.04882812 17.36914062 C-7.03777519 11.57940536 -7.02101951 5.78970719 -7 0 C-4.18270318 -1.40864841 -3.03710429 -0.87775199 0 0 Z " fill="#0fb8d7" transform="translate(346,231)"/>
<path d="M0 0 C2.15625 0.79296875 2.15625 0.79296875 3.15625 1.79296875 C3.25975194 3.28618172 3.29475739 4.78422532 3.30151367 6.28100586 C3.30789352 7.23547104 3.31427338 8.18993622 3.32084656 9.17332458 C3.32195938 10.2118306 3.3230722 11.25033661 3.32421875 12.3203125 C3.32921135 13.90919029 3.32921135 13.90919029 3.33430481 15.53016663 C3.33937869 17.77555913 3.34171299 20.0209592 3.34155273 22.26635742 C3.34373841 25.71220253 3.36188721 29.15772727 3.38085938 32.60351562 C3.38379329 34.77994682 3.3857781 36.95637954 3.38671875 39.1328125 C3.39390427 40.16929428 3.40108978 41.20577606 3.40849304 42.27366638 C3.40541641 43.23128372 3.40233978 44.18890106 3.39916992 45.17553711 C3.40059494 46.02079453 3.40201996 46.86605194 3.40348816 47.73692322 C3.15625 49.79296875 3.15625 49.79296875 1.15625 51.79296875 C-2.86969226 51.44871277 -5.86272356 49.88140428 -9.34375 47.9140625 C-10.39038818 47.32608887 -11.43702637 46.73811523 -12.51538086 46.13232422 C-13.61374268 45.50471191 -14.71210449 44.87709961 -15.84375 44.23046875 C-16.96338135 43.59512207 -18.0830127 42.95977539 -19.23657227 42.30517578 C-22.44478715 40.47770276 -25.64563851 38.63805322 -28.84375 36.79296875 C-29.63765137 36.33776855 -30.43155273 35.88256836 -31.24951172 35.41357422 C-33.10213475 34.34558119 -34.94444669 33.26288086 -36.78125 32.16796875 C-37.73902344 31.59820312 -38.69679687 31.0284375 -39.68359375 30.44140625 C-41.9529185 28.70966114 -42.83505003 27.43288067 -43.84375 24.79296875 C-39.2930564 20.8181928 -34.21630585 18.03679401 -28.96875 15.10546875 C-21.05925035 10.67042845 -21.05925035 10.67042845 -13.3046875 5.97265625 C-12.62905762 5.54944092 -11.95342773 5.12622559 -11.25732422 4.69018555 C-10.01421019 3.90431797 -8.77831292 3.10687364 -7.55126953 2.29614258 C-4.82344298 0.58102064 -3.26140845 -0.2374377 0 0 Z " fill="#0fb8d7" transform="translate(169.84375,230.20703125)"/>
<path d="M0 0 C2.47442851 0.20209476 3.63918774 0.61728873 5.3515625 2.43359375 C9.21722427 8.516675 12.71447471 14.78473313 16.16186523 21.11181641 C18.16353387 24.77047036 20.19335881 28.37501569 22.45703125 31.87890625 C22.83424316 32.46381836 23.21145508 33.04873047 23.60009766 33.65136719 C24.62021229 35.20971025 25.65908503 36.75572824 26.69921875 38.30078125 C28 41 28 41 27 46 C10.5 46 -6 46 -23 46 C-23.66 44.68 -24.32 43.36 -25 42 C-24.19238281 39.7043457 -24.19238281 39.7043457 -22.703125 37.17578125 C-22.16083252 36.23694092 -21.61854004 35.29810059 -21.05981445 34.33081055 C-20.46257568 33.33476807 -19.86533691 32.33872559 -19.25 31.3125 C-18.65469482 30.29260986 -18.05938965 29.27271973 -17.44604492 28.22192383 C-16.22860394 26.14030334 -15.00421591 24.06273044 -13.77294922 21.98925781 C-12.15463163 19.26071464 -10.55843256 16.52098006 -8.97265625 13.7734375 C-2.35787983 2.35787983 -2.35787983 2.35787983 0 0 Z " fill="#0fb8d7" transform="translate(255,127)"/>
<path d="M0 0 C16.5 0 33 0 50 0 C51.11453002 5.57265012 50.32937179 6.93484009 47.4375 11.3125 C46.60948351 12.62342699 45.78416183 13.93605837 44.9609375 15.25 C44.49655273 15.98605469 44.03216797 16.72210938 43.55371094 17.48046875 C39.79070308 23.58264365 36.27508812 29.83717824 32.69897461 36.05004883 C32.11897705 37.05060303 31.53897949 38.05115723 30.94140625 39.08203125 C30.42263916 39.98155518 29.90387207 40.8810791 29.36938477 41.80786133 C28 44 28 44 26 46 C24.10693359 45.97827148 24.10693359 45.97827148 22 45 C20.16259766 42.57055664 20.16259766 42.57055664 18.2890625 39.34765625 C17.94823639 38.76935562 17.60741028 38.19105499 17.2562561 37.5952301 C16.53135477 36.36327766 15.81166942 35.12824356 15.09680176 33.89044189 C14.02294013 32.03953949 12.92757781 30.20346056 11.82324219 28.37060547 C10.00753482 25.35328967 8.2217365 22.31984006 6.45068359 19.27612305 C5.72196325 18.03055044 4.98672147 16.78877438 4.24560547 15.55053711 C3.15610327 13.72847123 2.08783213 11.89541046 1.0234375 10.05859375 C0.39356934 8.98923584 -0.23629883 7.91987793 -0.88525391 6.81811523 C-1.43705322 5.42314819 -1.43705322 5.42314819 -2 4 C-1.34 2.68 -0.68 1.36 0 0 Z " fill="#0fb8d7" transform="translate(232,339)"/>
</svg>
